# xmcd
#
# Track frame offsets: 
#        150
#        13352
#        27460
#        40885
#        55130
#        63202
#        75720
#        89987
#        106662
#        123640
#        132112
#        140357
#        151922
#        163070
#        167547
#        178832
#        191677
#        196300
#        212127
#        220065
#        232902
#        241380
#        253512
#        264525
#        281035
#
# Disc length: 3961 seconds
#
# Revision: 1
# Processed by: cddbd v1.5.2PL0 Copyright (c) Steve Scherf et al.
# Submitted via: ExactAudioCopy v0.99pb3
#
DISCID=6b0f7719
DTITLE=Billie Holiday - The legendary masters unissued or rare - cd 2
DYEAR=1900
DGENRE=Blues
TTITLE0=God bless the child
TTITLE1=Jim
TTITLE2=Wherever you are
TTITLE3=Until the real thing comes along
TTITLE4=Do you know what it means to miss New Orleans
TTITLE5=Keeps on a'rainin'
TTITLE6=He's funny that way
TTITLE7=Fine and mellow
TTITLE8=I cover the waterfront
TTITLE9=Lover come back to me
TTITLE10=Them there eyes
TTITLE11=Lover man
TTITLE12=I got it bad and that ain't good
TTITLE13=Just friends
TTITLE14=Everything happens to me
TTITLE15=Prelude to a kiss
TTITLE16=I must have that man
TTITLE17=Willow weep for me
TTITLE18=I only have eyes for you
TTITLE19=My man
TTITLE20=Please don't talk about me when I'm gone
TTITLE21=Don't explain
TTITLE22=Porgy
TTITLE23=Ain't nobody's business but my own
TTITLE24=Billie's blues
EXTD=
EXTT0=
EXTT1=
EXTT2=
EXTT3=
EXTT4=
EXTT5=
EXTT6=
EXTT7=
EXTT8=
EXTT9=
EXTT10=
EXTT11=
EXTT12=
EXTT13=
EXTT14=
EXTT15=
EXTT16=
EXTT17=
EXTT18=
EXTT19=
EXTT20=
EXTT21=
EXTT22=
EXTT23=
EXTT24=
PLAYORDER=
